<svg xmlns="http://www.w3.org/2000/svg" width="182.016" height="28" viewBox="0 0 182.016 28"><g transform="translate(-58.984 -24)"><text transform="translate(97 45)" font-size="20" font-family="Poppins-Regular, Poppins" letter-spacing="-0.02em"><tspan x="0" y="0">Las Vegas Intel</tspan></text><path d="M16.016,10.258S13.5,3.243,13.594,2.993s1.719-.2,1.859,0,4.688,7.078,4.859,7.188,4.5-.078,4.5-.078,2.859.078,2.891,1.484-2.891,1.531-2.891,1.531l-4.5-.141Z" transform="translate(59 25.663)"/><path d="M59.016,25.672l-.031,20.672L90.3,46.328l-11.2-7.359s-4.453,6.672-4.687,6.922-1.781.125-1.8-.141,2.363-7.136,2.363-7.136-5.848-.239-6.02-.177-2,2.406-2.141,2.531-1.328.141-1.359,0,1.031-3.7,1.031-3.7-1.094-3.606-1.031-3.694a2.363,2.363,0,0,1,1.359,0c.156.178,1.922,2.375,2.031,2.433s5.766,0,5.766,0Z"/></g></svg>