<svg xmlns="http://www.w3.org/2000/svg" xmlns:xlink="http://www.w3.org/1999/xlink" width="526" height="1777" viewBox="0 0 526 1777"><defs><linearGradient id="a" x1="-0.176" y1="0.527" x2="1.408" y2="0.521" gradientUnits="objectBoundingBox"><stop offset="0" stop-color="#59c3e4"/><stop offset="1" stop-color="#fff"/></linearGradient><clipPath id="c"><rect width="526" height="1777"/></clipPath></defs><g id="b" clip-path="url(#c)"><rect width="526" height="1777" fill="#fff"/><g transform="translate(-1392.72 0.154)"><rect width="486" height="2857" transform="translate(1434)" fill="url(#a)"/><g transform="translate(2383.592 85) rotate(90)"><rect width="607" height="484" transform="translate(-85 463.592)" fill="none"/><path d="M0-8.408s24.2,239.049,154.637,360.3c65.349,60.746,157.666,87.1,232.66,102.533,74.691,15.367,108.362,21.335,132.052,23.058s-605.11,6.25-605.11,6.25L-85.431-8.5Z" transform="translate(0.276 472)" fill="#fff"/></g><path d="M1663.385,2702.078s-83.433,37.467-141.556,105.146-76.781,161.229-82.48,186.665c-2.144,31.369,2.573,4.236-3.075,24.945s-7.51,47.579-10.608,77.592a591.444,591.444,0,0,0-2.643,60.592s1.456-43.142,4.2-65.246c3.3-26.6,7.052-59.375,9.051-68.666,3.628-16.864,11.547-54.162,11.547-53.22-.471.471,25.579-104.455,76.266-162.661C1584.521,2737.6,1663.385,2702.078,1663.385,2702.078Z" transform="translate(3.706 -2569.296)" fill="#e6e6e6"/><path d="M1443.085,2945.356s-2.96,9.235-5.518,21.855-4.715,28.624-4.715,28.624-2.559,39.495-2.559,38.886c0,0,1.662-24.291,4.86-46.633S1443.085,2945.356,1443.085,2945.356Z" transform="translate(168.493 -2667.224) rotate(3)" fill="#e6e6e6"/><g transform="translate(1450 348)"><g transform="translate(0 0)"><g transform="matrix(-0.966, -0.259, 0.259, -0.966, 206.729, 103.19)"><g transform="translate(39.63 0)"><path d="M8.617,40.162C3.811,45.8.559,52.716,1.1,60.462,2.668,82.78,33.736,77.87,39.78,66.606S45.1,26.768,37.294,24.755c-3.115-.8-9.75,1.164-16.5,5.234L25.03,0H0Z" transform="translate(0)" fill="#915b3c" fill-rule="evenodd"/></g><path d="M81.773,31.826a28.613,28.613,0,0,1-1.343,4.463,20.89,20.89,0,0,1-2.634,4.9,37.034,37.034,0,0,1-6.965,7.557c-4.782,3.9-10.868,6.15-16.853,5.419a17.3,17.3,0,0,1-8.453-3.44c-2.256-1.734-4.426-4.285-7.347-4.469-3.178-.2-6.092,2.606-8.641,4.339a23.222,23.222,0,0,1-9.291,3.93A15.448,15.448,0,0,1,5.454,48.932C1.327,44.019-1.673,36.814,1.037,30.3a8.351,8.351,0,0,1,2.082-3.076c.853-.775,2.156-1.6,2.5-2.839.367-1.317-.73-3.016-1.156-4.2a12.375,12.375,0,0,1-.932-5.34A13.767,13.767,0,0,1,7.752,6.908a14.023,14.023,0,0,1,7.275-3.735A20.411,20.411,0,0,1,20.5,2.75a17.04,17.04,0,0,1,2.591.52,2.344,2.344,0,0,0,2.061-.5,16.913,16.913,0,0,1,10.9-2.7c3.289.274,7.08,1.071,9.763,3.324,2.98,2.5,2.92,5.954,2.219,9.641.743-.368,2.8-.6,1.57.871a6.649,6.649,0,0,1-2.03,1.16,7.386,7.386,0,0,0-2.029,1.562c-2.279,2.621.023,7.956,2.887,8.835,4.256,1.306,5.208-4.712,8.246-6.269,1.747-.9,3.574.328,4.882,1.578a19.55,19.55,0,0,1,3.979,6.147c.85,1.858,1.64,3.742,2.506,5.591.4.863,1.8,3.3,1.1,4.28,3.048.608,6.443-.659,9.068-2.32a6.2,6.2,0,0,0,2.491-2.656c.124-.26.394-1.032.733-1.064.631-.059.4.712.333,1.079" transform="translate(0 29.723)" fill="#191847" fill-rule="evenodd"/></g><g transform="translate(18.149 171.51)"><path d="M216.922,102.3q-37.529,10.5-64.756,10.5t-50.58-16.164q36.723-10.774,60.488-10.774T216.922,102.3Z" transform="translate(-40.055 5.046)" fill="#1f28cf" fill-rule="evenodd"/><path d="M174.691,122.878a5.918,5.918,0,0,0,.606-1.184C178.641,112.85,232.206,17.443,237.543,0H177.236c-4.057,13.262-22.319,96.488-24.889,113.093-8.109,26.193-24.8,111.02-26.935,116.9-2.243,6.182,10.373,12.622,13.735,5.022,5.349-12.093,18.094-45.554,23.769-65.985C168.236,149.872,172.568,132.64,174.691,122.878Z" transform="translate(-84.237 5.046)" fill="#784931" fill-rule="evenodd"/><path d="M47.106,134.527c24.489,6.189,114.064,17.379,120.211,19.134,6.323,1.805,11.868-11.229,4.052-14.052-12.437-4.493-46.705-14.873-67.483-19.109-16.712-3.407-31.962-6.187-42.2-7.815C62.553,83.925,66.518,14.907,63.92,0H10.561c2.492,14.294,23.558,118.6,27.474,129.036,1.243,3.727,4.95,5.374,9.072,5.491Z" transform="translate(92.687 5.046)" fill="#915b3c" fill-rule="evenodd"/><g transform="translate(278.786 142.104) rotate(100)"><path d="M1.75,15.224A22.392,22.392,0,0,1,0,8.233,52.33,52.33,0,0,1,.94,0H59.761q2.293,7.58-2.647,8.184T48.907,9.276L21.567,21.464a1.043,1.043,0,0,1-1.377-.528l-.012-.027-1.757-4.263a18.755,18.755,0,0,0-7.432-2.134,16.831,16.831,0,0,0-6.416,1.876h0a2.086,2.086,0,0,1-2.765-1.027Q1.776,15.294,1.75,15.224Z" transform="translate(0 0)" fill="#e4e4e4" fill-rule="evenodd"/></g><g transform="translate(0 232.743)"><path d="M59.781,26.492a22.392,22.392,0,0,1,1.75,6.991,52.33,52.33,0,0,1-.94,8.233H1.77q-2.293-7.58,2.647-8.184t8.207-1.091l27.34-12.188a1.043,1.043,0,0,1,1.377.528l.012.027L43.11,25.07A18.755,18.755,0,0,0,50.542,27.2a16.831,16.831,0,0,0,6.416-1.876h0a2.086,2.086,0,0,1,2.765,1.027Q59.755,26.422,59.781,26.492Z" transform="translate(-1.043 -20.161)" fill="#e4e4e4" fill-rule="evenodd"/></g><path d="M192.56,0q-35.271-10.091-66.745,0c-7.3,33.307-25.039,46.527-28.158,97.593,35.458,17.619,79.26-12.565,115.761,4.616C223.847,78.177,209.247,20.3,192.56,0Z" transform="translate(-36.126 5.046)" fill="#2b44ff" fill-rule="evenodd"/></g><g transform="translate(189.088 239.49) rotate(-170)"><path d="M-10.558,29.841,39.187,48.015c8.634,7.148,9.606,7.586,17.988,11.541,2.561.745,7.039,1.2,2.85-3.986S51.767,44.806,53.9,43.209s7.454.634,10-2.019c1.7-1.768.143.552-19.734-3.266L19.175,18.337ZM81.329,15.957,106.4,25.973a34,34,0,0,0,4.653,8.839c1.929,2.53,1.563,5.47,4.189,4.565-.014.037.1-10.207,6.583-9.277S135.7,39,138.426,37.331c2.255-3.584,1.779-9.672-.077-15.119-5.6-6.379-13.13-6.147-28.239-12.308A107.608,107.608,0,0,1,82.627,0Z" transform="translate(82.401 76.897)" fill="#915b3c" fill-rule="evenodd"/><path d="M5.741,25.4a88.944,88.944,0,0,1,49.272,6.637L59.54,15.328C45.317,5.077,26.447-2.207,11.4.61-.452,2.831-4.257,18.2,5.741,25.4Z" transform="translate(65.581 84.94) rotate(9)" fill="#2026a2" fill-rule="evenodd"/><path d="M84.35,85.593c13.461-3.357,53.881,9.7,85.566,20.97,7.859-16.259,24.448-27.594,23.855-34.517-27.18-14.2-82.805-26.694-102-27.112.61-11.388.749-25.408-3.908-35.31-9.573-20.355-65.628-1.5-84.476-5.214C-8.415,42.74,14.407,58.317,14.425,82.844c.02,26.859,21.587,68.2,24.76,68.2H68.122C69.719,130.533,77.755,107.926,84.35,85.593Z" transform="translate(6.042 1.981)" fill="#1f28cf" fill-rule="evenodd"/></g></g></g><path d="M0,0H469.562V64H0Z" transform="matrix(0.951, 0, 0.288, 0.358, 1461.629, 767.532)" fill="#dc4f4f"/><path d="M1446.726,3300.639v19.815l4.67,42.85,0-37.25Z" transform="translate(0 -2534)" fill="#af2222"/><path d="M1451.393,3363.32v-37.561l465.282-2.009-.051,37.784Z" transform="translate(0 -2534)" fill="#c53535"/><ellipse cx="44" cy="3" rx="44" ry="3" transform="translate(1469 771)" fill="#414141"/><g transform="translate(46.941) scale(0.974 1)"><rect width="24.5" height="6" transform="translate(1807.5 601.5) rotate(90)" fill="#212121"/><rect width="24.5" height="6" transform="translate(1860.5 601.5) rotate(90)" fill="#212121"/><rect width="6" height="5" transform="translate(1801.5 602)"/><rect width="6" height="5" transform="translate(1854.5 602)"/><rect width="75" height="6" rx="2" transform="translate(1794 596)" fill="#212121"/><rect width="125" height="158" rx="16" transform="translate(1769 625)" fill="#d42f2f"/><g transform="translate(1777 639)" fill="#bb3939" stroke="#aeaea9" stroke-width="3"><rect width="109" height="134" rx="9" stroke="none"/><rect x="1.5" y="1.5" width="106" height="131" rx="7.5" fill="none"/></g><rect width="74" height="7" rx="2" transform="translate(1795 653)" fill="#444040"/></g><path d="M1878.546,3158.082s6.51,3.039,10.24,6.671a17.54,17.54,0,0,1,4.679,7.858l-.292,133.492a12.229,12.229,0,0,1-3.787,6.865c-3.315,3.023-9.475,5.226-9.475,5.226s8.9-.838,13.261-2.057,9.652-6.459,11.181-8.734,0-112.059-.494-126.232-4.9-15.844-9.723-19.281S1878.546,3158.082,1878.546,3158.082Z" transform="translate(0 -2534)" fill="#a42b2b"/><path d="M80.107,277.3c93.782-20.563,244.932-172.106,371.752-177.106C608.5,110.366,840.417-111.377,828.211-178.51c-2.034,2.034,1034.046,8.327,1083.823,8.327V322L1857.9,338.383c-63.41,0-190.855-5.7-317.676-5.7H1161.293c-126.82,0-257.1-4.274-383.917-4.274S533.188,361.28,406.367,361.28s-240.5-4.118-303.911-4.118h-191.9L-145.7,259.509C-104.57,252.8,29.371,288.425,80.107,277.3Z" transform="translate(1754 938) rotate(90)" fill="#fff"/><rect width="526" height="50" transform="translate(1392.72 2811.846)" fill="#fff"/><path d="M1443.814,539.583c-13.6,90.947,44.545,182.063,50.79,253.024s-60.7,38.087-60.7,38.087l-3.372-250.772S1457.415,448.636,1443.814,539.583Z" fill="#fff"/></g></g></svg>